<svg width="38px" height="39px" viewBox="0 0 38 39" version="1.1" xmlns="http://www.w3.org/2000/svg" xmlns:xlink="http://www.w3.org/1999/xlink">
    <!-- Generator: Sketch 53.2 (72643) - https://sketchapp.com -->
    <title>github-logo</title>
    <desc>Created with Sketch.</desc>
    <g id="project-" stroke="none" stroke-width="1" fill="none" fill-rule="evenodd">
        <g id="Desktop" transform="translate(-493.000000, -3073.000000)" fill="#3A96A2" fill-rule="nonzero">
            <g id="github-logo" transform="translate(493.000000, 3073.000000)">
                <path d="M35.4512776,9.95541837 C33.7522449,6.89280175 31.4476155,4.46812391 28.5367829,2.68083788 C25.625517,0.893460694 22.4472826,0 18.9998267,0 C15.552804,0 12.3735298,0.893734174 9.46287049,2.68083788 C6.55177792,4.46803275 4.24723518,6.89280175 2.54820247,9.95541837 C0.849429706,13.0179438 0,16.3622453 0,19.9882317 C0,24.343864 1.20790065,28.2605601 3.62430851,31.7393228 C6.04045642,35.2183591 9.16176182,37.6257165 12.9879648,38.9616686 C13.4333456,39.0486354 13.7630488,38.9874669 13.9774208,38.7797129 C14.1918795,38.5716854 14.2989789,38.3111497 14.2989789,37.9991996 C14.2989789,37.9471472 14.294733,37.4788575 14.2865013,36.5937835 C14.2780096,35.7087095 14.2740237,34.936583 14.2740237,34.2777686 L13.7049933,34.3813265 C13.3421899,34.4512463 12.8845047,34.4808734 12.3319378,34.4724867 C11.7796309,34.4643734 11.206268,34.4034784 10.612629,34.2902575 C10.0187301,34.1780394 9.46633648,33.9177771 8.95501498,33.5100177 C8.44395343,33.1022583 8.08114998,32.5685156 7.86669129,31.90961 L7.61930561,31.3106878 C7.45441071,30.9119533 7.19480739,30.4690061 6.84014904,29.9834871 C6.48549069,29.4975123 6.12684644,29.1680595 5.764043,28.9945817 L5.5908297,28.8641315 C5.47541193,28.7774382 5.36831256,28.6728775 5.26927164,28.5515433 C5.17031737,28.4302092 5.09623164,28.3087838 5.0467545,28.1871762 C4.99719072,28.0654774 5.0382628,27.965657 5.17040402,27.8873504 C5.30254523,27.8090439 5.54135256,27.7710301 5.88786581,27.7710301 L6.38246387,27.8487897 C6.71234032,27.9183449 7.12037506,28.1260989 7.60708797,28.4733279 C8.09354093,28.8202835 8.49343056,29.2713439 8.80684352,29.826327 C9.18637041,30.5379231 9.64362233,31.0801438 10.179899,31.4532623 C10.7157425,31.8263808 11.2560051,32.012621 11.8001669,32.012621 C12.3443288,32.012621 12.8143182,31.9692288 13.2103086,31.8829001 C13.6058657,31.7961156 13.9769876,31.6656654 14.3235008,31.4922788 C14.4719322,30.3292575 14.8760677,29.4357969 15.5355607,28.8112586 C14.5955818,28.707336 13.7504846,28.5508141 12.9998358,28.3426954 C12.2496203,28.1343033 11.474363,27.7960991 10.6745837,27.3271713 C9.87437122,26.8588815 9.21054576,26.2773709 8.68293406,25.5836421 C8.15523571,24.8895487 7.72215913,23.9783118 7.38431088,22.8507518 C7.04628933,21.722736 6.87723523,20.4215159 6.87723523,18.9467269 C6.87723523,16.8468527 7.52884304,15.0599313 8.83179872,13.58496 C8.22143629,12.0062484 8.27905853,10.2364651 9.00483872,8.27579249 C9.48314658,8.11945282 10.1924633,8.23677594 11.1324422,8.62703257 C12.0725944,9.01747152 12.7609418,9.35193813 13.1981776,9.62924733 C13.6354134,9.90646537 13.9857392,10.1413851 14.2496751,10.3319098 C15.7838129,9.88094052 17.3669946,9.6554103 18.9996534,9.6554103 C20.6323122,9.6554103 22.2158405,9.88094052 23.750065,10.3319098 L24.6901306,9.70755391 C25.3329867,9.29095199 26.0921272,8.90917325 26.9657322,8.56212654 C27.8398572,8.21526214 28.5082751,8.1197263 28.9702927,8.27606597 C29.7121898,10.2368298 29.7783038,12.0065219 29.167768,13.5852335 C30.4706371,15.0602048 31.1225048,16.847582 31.1225048,18.9470004 C31.1225048,20.4217894 30.9528442,21.7271117 30.6153425,22.8637877 C30.2774076,24.000646 29.8406051,24.9109713 29.3047616,25.596678 C28.7683116,26.2822936 28.1002403,26.8592462 27.3004611,27.3274448 C26.5005085,27.796008 25.7249912,28.1342121 24.9747757,28.3426043 C24.2242137,28.5509964 23.3791164,28.7076095 22.4391375,28.8117144 C23.2964524,29.5922277 23.7251964,30.8242572 23.7251964,32.507256 L23.7251964,37.9984704 C23.7251964,38.3104204 23.8283099,38.570865 24.0347102,38.7789836 C24.2408504,38.9867376 24.5663944,39.0479061 25.0117753,38.9608481 C28.8384981,37.6250784 31.9598035,35.2176298 34.3758648,31.7385936 C36.7916661,28.2598308 38,24.3431347 38,19.9875024 C37.9991335,16.3619718 37.1492705,13.0179438 35.4512776,9.95541837 Z" id="Path"></path>
            </g>
        </g>
    </g>
</svg>
