<svg width="38px" height="41px" viewBox="0 0 38 41" version="1.1" xmlns="http://www.w3.org/2000/svg" xmlns:xlink="http://www.w3.org/1999/xlink">
    <!-- Generator: Sketch 53.2 (72643) - https://sketchapp.com -->
    <title>linkedin</title>
    <desc>Created with Sketch.</desc>
    <g id="project-" stroke="none" stroke-width="1" fill="none" fill-rule="evenodd">
        <g id="Desktop" transform="translate(-575.000000, -3071.000000)" fill="#3A96A2" fill-rule="nonzero">
            <g id="linkedin" transform="translate(575.000000, 3071.000000)">
                <path d="M20.0221,18.3779803 L20.0221,18.3062303 C20.0085,18.3302908 19.9897,18.3543513 19.9779,18.3779803 L20.0221,18.3779803 Z" id="Path"></path>
                <path d="M0,0 L0,41 L38,41 L38,0 L0,0 Z M11.8194198,34.0617187 L6.18155604,34.0617187 L6.18155604,15.7607604 L11.8194198,15.7607604 L11.8194198,34.0617187 Z M9.00048791,13.2629143 L8.96323956,13.2629143 C7.07200879,13.2629143 5.84615385,11.8571099 5.84615385,10.099967 C5.84615385,8.30425714 7.10783736,6.93828132 9.0374022,6.93828132 C10.9673846,6.93828132 12.1534022,8.30425714 12.1903165,10.099967 C12.1903165,11.8571099 10.9673846,13.2629143 9.00048791,13.2629143 Z M32.1538462,34.0618088 L26.5144791,34.0617187 L26.5144791,24.2706484 C26.5144791,21.8114593 25.6996923,20.1328022 23.658633,20.1328022 C22.0998813,20.1328022 21.1736,21.2630505 20.7655385,22.3578857 C20.6172132,22.7489626 20.5784615,23.2925956 20.5784615,23.8410044 L20.5784615,34.0618088 L14.9380088,34.0618088 C14.9380088,34.0618088 15.0135912,17.4777143 14.9380088,15.7608505 L20.5784615,15.7608505 L20.5784615,18.3541231 C21.3278549,17.1099758 22.6652044,15.3312066 25.6609407,15.3312066 C29.3721626,15.3312066 32.1538462,17.9461956 32.1538462,23.5670703 L32.1538462,34.0618088 Z" id="Shape"></path>
            </g>
        </g>
    </g>
</svg>
